<svg xmlns="http://www.w3.org/2000/svg" width="300" height="150" fill="none" viewBox="0 0 300 150"><path fill="#5A77AD" d="M300 0H0V150H300V0Z" opacity=".18"/><rect width="71" height="82" x="25" y="36" fill="#fff" rx="4"/><rect width="70" height="81" x="25.5" y="36.5" stroke="#7D869C" stroke-opacity=".5" rx="3.5"/><rect width="55" height="6.271" x="33" y="77" fill="#7D869C" fill-opacity=".5" rx="2"/><rect width="30.962" height="3.135" x="45.019" y="86.406" fill="#D3DAE6" rx="1.568"/><rect width="41.544" height="3.135" x="39.728" y="92.677" fill="#D3DAE6" rx="1.568"/><rect width="36.971" height="3.135" x="42.014" y="98.948" fill="#D3DAE6" rx="1.568"/><rect width="17.375" height="3.135" x="51.812" y="105.219" fill="#D3DAE6" rx="1.568"/><path fill="#07C" d="M26 40C26 38.3431 27.3431 37 29 37H92C93.6569 37 95 38.3431 95 40V68H26V40Z"/><rect width="71" height="82" x="114" y="36" fill="#fff" rx="4"/><rect width="70" height="81" x="114.5" y="36.5" stroke="#7D869C" stroke-opacity=".5" rx="3.5"/><rect width="55" height="6.271" x="122" y="77" fill="#7D869C" fill-opacity=".5" rx="2"/><rect width="30.962" height="3.135" x="134.019" y="86.406" fill="#D3DAE6" rx="1.568"/><rect width="41.544" height="3.135" x="128.728" y="92.677" fill="#D3DAE6" rx="1.568"/><rect width="36.971" height="3.135" x="131.014" y="98.948" fill="#D3DAE6" rx="1.568"/><rect width="17.375" height="3.135" x="140.812" y="105.219" fill="#D3DAE6" rx="1.568"/><path fill="#00BFB3" d="M115 40C115 38.3431 116.343 37 118 37H181C182.657 37 184 38.3431 184 40V68H115V40Z"/><rect width="71" height="82" x="203" y="36" fill="#fff" rx="4"/><rect width="70" height="81" x="203.5" y="36.5" stroke="#7D869C" stroke-opacity=".5" rx="3.5"/><rect width="55" height="6.271" x="211" y="77" fill="#7D869C" fill-opacity=".5" rx="2"/><rect width="30.962" height="3.135" x="223.019" y="86.406" fill="#D3DAE6" rx="1.568"/><rect width="41.544" height="3.135" x="217.728" y="92.677" fill="#D3DAE6" rx="1.568"/><rect width="36.971" height="3.135" x="220.014" y="98.948" fill="#D3DAE6" rx="1.568"/><rect width="17.375" height="3.135" x="229.812" y="105.219" fill="#D3DAE6" rx="1.568"/><path fill="#F04E98" d="M204 40C204 38.3431 205.343 37 207 37H270C271.657 37 273 38.3431 273 40V68H204V40Z"/></svg>