<svg xmlns="http://www.w3.org/2000/svg" width="300" height="150" fill="none" viewBox="0 0 300 150"><path fill="#5A77AD" d="M300 0H0V150H300V0Z" opacity=".18"/><rect width="130.141" height="15.953" x="85" y="21" fill="#7D869C" fill-opacity=".5" rx="2"/><rect width="47.859" height="15.953" x="227.141" y="21" fill="#07C" rx="3"/><rect width="23.929" height="2.659" x="239.106" y="27.647" fill="#fff" rx="1"/><rect width="190" height="85.047" x="85" y="44.953" fill="#fff" rx="2"/><rect width="189" height="84.047" x="85.5" y="45.453" stroke="#7D869C" stroke-opacity=".5" rx="1.5"/><g opacity=".6"><rect width="54.606" height="5.53" x="153.256" y="68.248" fill="#D3DAE6" rx="2"/><rect width="73.268" height="5.53" x="143.925" y="79.307" fill="#D3DAE6" rx="2"/><rect width="65.204" height="5.53" x="147.957" y="90.366" fill="#D3DAE6" rx="2"/><rect width="30.644" height="5.53" x="165.237" y="101.426" fill="#D3DAE6" rx="2"/></g><g opacity=".415"><rect width="40" height="6" x="25" y="22" fill="#7D869C" fill-opacity=".5" rx="2"/><rect width="40" height="6" x="25" y="36" fill="#7D869C" fill-opacity=".5" rx="2"/><rect width="40" height="6" x="25" y="50" fill="#7D869C" fill-opacity=".5" rx="2"/><rect width="40" height="6" x="25" y="64" fill="#7D869C" fill-opacity=".5" rx="2"/><rect width="40" height="6" x="25" y="78" fill="#7D869C" fill-opacity=".5" rx="2"/><rect width="40" height="6" x="25" y="92" fill="#7D869C" fill-opacity=".5" rx="2"/><rect width="40" height="6" x="25" y="106" fill="#7D869C" fill-opacity=".5" rx="2"/><rect width="40" height="6" x="25" y="120" fill="#7D869C" fill-opacity=".5" rx="2"/></g></svg>