<svg xmlns="http://www.w3.org/2000/svg" width="300" height="150" fill="none" viewBox="0 0 300 150"><path fill="#5A77AD" d="M300 0H0V150H300V0Z" opacity=".18"/><rect width="190.141" height="15.953" x="25" y="22" fill="#fff" rx="2"/><rect width="189.141" height="14.953" x="25.5" y="22.5" stroke="#7D869C" stroke-opacity=".5" rx="1.5"/><rect width="47.859" height="15.953" x="227.141" y="22" fill="#07C" rx="3"/><rect width="23.929" height="2.659" x="239.106" y="28.647" fill="#fff" rx="1"/><g opacity=".6"><rect width="56.938" height="9.05" x="25" y="47.003" fill="#7D869C" fill-opacity=".5" rx="1.508"/><rect width="116.516" height="9.05" x="91.742" y="47.003" fill="#7D869C" fill-opacity=".5" rx="1.508"/><rect width="56.938" height="9.05" x="218.062" y="47.003" fill="#7D869C" fill-opacity=".5" rx="1.508"/></g><g opacity=".6"><rect width="56.938" height="9.05" x="25" y="65.102" fill="#7D869C" fill-opacity=".5" rx="1.508"/><rect width="116.516" height="9.05" x="91.742" y="65.102" fill="#7D869C" fill-opacity=".5" rx="1.508"/><rect width="56.938" height="9.05" x="218.062" y="65.102" fill="#7D869C" fill-opacity=".5" rx="1.508"/></g><g opacity=".6"><rect width="56.938" height="9.05" x="25" y="83.202" fill="#7D869C" fill-opacity=".5" rx="1.508"/><rect width="116.516" height="9.05" x="91.742" y="83.202" fill="#7D869C" fill-opacity=".5" rx="1.508"/><rect width="56.938" height="9.05" x="218.062" y="83.202" fill="#7D869C" fill-opacity=".5" rx="1.508"/></g><g opacity=".6"><rect width="56.938" height="9.05" x="25" y="101.301" fill="#7D869C" fill-opacity=".5" rx="1.508"/><rect width="116.516" height="9.05" x="91.742" y="101.301" fill="#7D869C" fill-opacity=".5" rx="1.508"/><rect width="56.938" height="9.05" x="218.062" y="101.301" fill="#7D869C" fill-opacity=".5" rx="1.508"/></g><g opacity=".6"><rect width="56.938" height="9.05" x="25" y="119.401" fill="#7D869C" fill-opacity=".5" rx="1.508"/><rect width="116.516" height="9.05" x="91.742" y="119.401" fill="#7D869C" fill-opacity=".5" rx="1.508"/><rect width="56.938" height="9.05" x="218.062" y="119.401" fill="#7D869C" fill-opacity=".5" rx="1.508"/></g></svg>